<?xml version="1.0" encoding="UTF-8" standalone="no"?>
<!-- Created by Cary Bass http://commons.wikipedia.com/wiki/User:Bastique on January 20, 2006 -->

<svg
   xmlns:dc="http://purl.org/dc/elements/1.1/"
   xmlns:cc="http://creativecommons.org/ns#"
   xmlns:rdf="http://www.w3.org/1999/02/22-rdf-syntax-ns#"
   xmlns:svg="http://www.w3.org/2000/svg"
   xmlns="http://www.w3.org/2000/svg"
   xmlns:sodipodi="http://sodipodi.sourceforge.net/DTD/sodipodi-0.dtd"
   xmlns:inkscape="http://www.inkscape.org/namespaces/inkscape"
   version="1.1"
   width="600"
   height="525"
   id="svg3069"
   inkscape:version="0.48.2 r9819"
   sodipodi:docname="DIN_4844-2_Warnung_vor_einer_Gefahrenstelle_D-W000.svg"
   inkscape:export-filename="/Users/paxswill/Desktop/Disaster Area-64.png"
   inkscape:export-xdpi="10.579028"
   inkscape:export-ydpi="10.579028">
  <metadata
     id="metadata3085">
    <rdf:RDF>
      <cc:Work
         rdf:about="">
        <dc:format>image/svg+xml</dc:format>
        <dc:type
           rdf:resource="http://purl.org/dc/dcmitype/StillImage" />
        <dc:title></dc:title>
      </cc:Work>
    </rdf:RDF>
  </metadata>
  <sodipodi:namedview
     pagecolor="#ffffff"
     bordercolor="#666666"
     borderopacity="1"
     objecttolerance="10"
     gridtolerance="10"
     guidetolerance="10"
     inkscape:pageopacity="0"
     inkscape:pageshadow="2"
     inkscape:window-width="1440"
     inkscape:window-height="856"
     id="namedview3083"
     showgrid="false"
     inkscape:zoom="0.95047619"
     inkscape:cx="113.77756"
     inkscape:cy="262.5"
     inkscape:window-x="395"
     inkscape:window-y="78"
     inkscape:window-maximized="0"
     inkscape:current-layer="svg3069">
    <sodipodi:guide
       position="597.6,25.4"
       orientation="-491.6,-283.8"
       id="guide3820" />
    <sodipodi:guide
       position="286,517"
       orientation="491.6,-283.8"
       id="guide3822" />
    <sodipodi:guide
       position="16.1,1.4"
       orientation="0,567.6"
       id="guide3824" />
    <sodipodi:guide
       position="597.6,25.4"
       orientation="0,0"
       id="guide3826" />
  </sodipodi:namedview>
  <defs
     id="defs3073">
    <path
       d="M 2.8117,-1.046 A 3 3 0 0 1 .5,2.958 V 4.5119 A 10.5 10.5 0 0 1 2,25.3078 V 25.8661 A 15 15 0 0 0 14.7975,8.5433 15 15 0 0 0 23.4007,-11.201 L 22.9172,-10.9218 A 10.5 10.5 0 0 1 4.1574,-1.8229 z M 6.2265,7.825 A 10 10 0 0 1 -6.2265,7.825 9.5 9.5 0 0 0 -8.4021,10.5667 13.5 13.5 0 0 0 8.4021,10.5667 10 10 0 0 0 6.2265,7.825 z"
       id="p"
       transform="scale(10,-10) translate(26,-26)" />
  </defs>
  <polygon
     transform="matrix(1,0,0,0.99591458,0.125,2.0332437)"
     style="fill:#e87600;fill-opacity:1;stroke:#e87600;overflow:visible;stroke-opacity:1;stroke-width:35.07171465999999782;stroke-miterlimit:4;stroke-dasharray:none;stroke-linejoin:round"
     id="polygon7"
     points="555.875,491.5 43.875,491.5 299.875,48.2 " />
  <path
     sodipodi:type="arc"
     style="fill:#ffffff;fill-opacity:1;stroke:none;stroke-width:0.62514842000000004;stroke-linecap:square;stroke-miterlimit:4;stroke-opacity:0.40000000000000002;stroke-dasharray:none;stroke-dashoffset:0"
     id="path1995"
     sodipodi:cx="-422.16095"
     sodipodi:cy="417.52725"
     sodipodi:rx="38.151581"
     sodipodi:ry="36.156727"
     d="m -384.00937,417.52725 a 38.151581,36.156727 0 1 1 -76.30316,0 38.151581,36.156727 0 1 1 76.30316,0 z"
     transform="matrix(0.99319888,0,0,1.0479962,719.28979,-2.9357862)" />
  <path
     style="fill:#ffffff;fill-opacity:1;stroke:none;stroke-width:0.88582676999999999;stroke-linecap:square;stroke-miterlimit:4;stroke-opacity:1;stroke-dashoffset:0"
     d="m 300,168.60074 c -20.64745,0 -37.26716,16.97292 -37.26716,38.05658 l 11.01897,133.31318 c 2.10449,17.24457 3.90184,27.0149 11.01898,31.60966 4.64712,2.1172 9.79468,3.32214 15.22921,3.32214 5.40832,0 10.53383,-1.1913 15.16343,-3.28925 7.15697,-4.58178 8.97556,-14.35941 11.08476,-31.64255 l 11.01898,-133.31318 c 0,-21.08366 -16.61973,-38.05658 -37.26717,-38.05658 z"
     id="rect1997"
     inkscape:connector-curvature="0" />
</svg>
